<svg width="17" height="17" viewBox="0 0 17 17" fill="none" xmlns="http://www.w3.org/2000/svg">
<g clip-path="url(#clip0_1_719)">
<path d="M3.16699 1.87204H13.833C14.4739 1.87204 15.0888 2.12683 15.542 2.58005C15.9952 3.03326 16.25 3.64809 16.25 4.28903V12.289C16.2499 12.9299 15.9951 13.5449 15.542 13.998C15.0888 14.451 14.4738 14.705 13.833 14.705H3.16699C2.52621 14.705 1.91119 14.451 1.45801 13.998C1.00487 13.5449 0.750086 12.9299 0.75 12.289V4.28903C0.75 3.64809 1.00479 3.03326 1.45801 2.58005C1.91122 2.12683 2.52605 1.87204 3.16699 1.87204ZM14.3418 5.80856L10.2412 9.16891C9.74992 9.57081 9.13474 9.79001 8.5 9.79001C7.86526 9.79001 7.25008 9.57081 6.75879 9.16891L2.6582 5.80856L2.25 5.4736V12.289C2.25009 12.532 2.34682 12.7647 2.51855 12.9365C2.69046 13.1084 2.92388 13.205 3.16699 13.205H13.833C14.0761 13.205 14.3095 13.1084 14.4814 12.9365C14.6532 12.7647 14.7499 12.532 14.75 12.289V5.4736L14.3418 5.80856ZM3.16699 3.37204C3.01374 3.37143 2.8624 3.40959 2.72754 3.48239L2.39941 3.65915L2.68848 3.89548L7.70801 8.00192C7.93135 8.18471 8.21139 8.28513 8.5 8.28513C8.78861 8.28513 9.06865 8.18471 9.29199 8.00192L14.3115 3.89548L14.6006 3.65915L14.2725 3.48239C14.1376 3.40959 13.9863 3.37143 13.833 3.37204H3.16699Z" fill="#D8D8D8" stroke="white" stroke-width="0.5"/>
</g>
<defs>
<clipPath id="clip0_1_719">
<rect width="16" height="16" fill="white" transform="translate(0.5 0.288696)"/>
</clipPath>
</defs>
</svg>
