<svg width="17" height="17" viewBox="0 0 17 17" fill="none" xmlns="http://www.w3.org/2000/svg">
<g clip-path="url(#clip0_1_723)">
<path d="M3.94727 4.57971C4.83614 4.44725 5.74314 4.6388 6.50293 5.11877C7.26261 5.59878 7.82481 6.33539 8.08691 7.19495L8.14062 7.3717H16.25V9.20569H14.917V11.3717H12.75V9.20569H8.14062L8.08691 9.38245C7.82481 10.242 7.26262 10.9786 6.50293 11.4586C5.74314 11.9386 4.83614 12.1301 3.94727 11.9977C3.05833 11.8652 2.24598 11.4177 1.65918 10.7369C1.07254 10.0562 0.75 9.18733 0.75 8.2887C0.750002 7.39006 1.07253 6.52117 1.65918 5.84045C2.24598 5.1597 3.05834 4.71223 3.94727 4.57971ZM4.5 6.3717C3.4433 6.37175 2.58301 7.23199 2.58301 8.2887C2.58362 8.79674 2.78628 9.28394 3.14551 9.64319C3.45988 9.95756 3.872 10.1519 4.31055 10.1959L4.5 10.2057C5.55674 10.2057 6.41699 9.34543 6.41699 8.2887C6.41699 7.23196 5.55673 6.3717 4.5 6.3717Z" fill="#D8D8D8" stroke="white" stroke-width="0.5"/>
</g>
<defs>
<clipPath id="clip0_1_723">
<rect width="16" height="16" fill="white" transform="translate(0.5 0.288696)"/>
</clipPath>
</defs>
</svg>
