<svg width="17" height="17" viewBox="0 0 17 17" fill="none" xmlns="http://www.w3.org/2000/svg">
<g clip-path="url(#clip0_1_715)">
<path d="M8.50024 8.5387C12.044 8.53887 14.9163 11.4119 14.9163 14.9557V16.0387H2.08325V14.9557C2.08325 11.4118 4.95632 8.5387 8.50024 8.5387ZM8.50024 0.538696C9.40628 0.538782 10.2756 0.899 10.9163 1.53967C11.5568 2.18039 11.9163 3.04969 11.9163 3.95569C11.9162 4.86173 11.5569 5.73103 10.9163 6.3717C10.2756 7.01238 9.40628 7.37162 8.50024 7.3717C7.59424 7.3717 6.72495 7.01225 6.08423 6.3717C5.44356 5.73103 5.08334 4.86173 5.08325 3.95569C5.08325 3.04953 5.44348 2.18042 6.08423 1.53967C6.72498 0.898924 7.59409 0.538696 8.50024 0.538696Z" fill="#D8D8D8" stroke="white" stroke-width="0.5"/>
</g>
<defs>
<clipPath id="clip0_1_715">
<rect width="16" height="16" fill="white" transform="translate(0.5 0.288696)"/>
</clipPath>
</defs>
</svg>
